<svg width="154" height="134" viewBox="0 0 154 134" fill="none" xmlns="http://www.w3.org/2000/svg">
<path d="M108.769 47.9782C103.363 57.9143 95.4044 65.4677 86.1143 71.784C86.4037 71.6175 86.7015 71.4644 86.9813 71.283C95.6562 65.6574 102.98 58.68 108.474 49.8579C110.214 47.0645 111.858 44.2091 113.785 41.5347C114.152 41.0266 114.335 40.2712 115.21 41.1703C115.629 41.6015 116.55 41.385 117.241 41.5589C117.802 41.6995 117.892 41.5396 117.796 42.0755C117.724 42.4778 118.108 42.7922 117.872 43.1932C118.224 43.18 118.277 42.6073 118.587 42.809C118.928 43.0311 118.843 43.4182 118.734 43.7984C117.803 46.9951 116.584 50.1009 115.093 53.0778C112.055 59.2126 107.977 64.7745 103.04 69.5168C96.557 75.781 89.1727 80.7503 81.1041 84.7499C71.5119 89.5056 61.3352 92.0885 50.7219 93.0876C46.8941 93.4477 43.0609 93.6434 39.2523 92.8568C38.8611 92.7759 38.469 92.6949 38.0848 92.5872C37.775 92.5003 37.3474 92.4353 37.797 91.9736C37.9499 91.8167 37.977 91.5709 37.7379 91.5749C36.7341 91.5917 36.5338 90.6718 35.9652 90.1747C35.298 89.5916 35.4151 88.7956 35.4338 88.1621C35.4565 87.4015 36.1046 87.0787 36.9947 87.0724C45.3965 87.0124 53.4671 85.0823 61.401 82.5257C72.9821 78.7942 83.6381 73.2855 93.1592 65.662C98.4706 61.4124 103.098 56.3726 106.88 50.7186C107.498 49.7975 108.139 48.8912 108.769 47.9782ZM105.552 55.7571C104.486 56.5517 103.645 57.6107 103.114 58.8295C102.641 58.7365 102.539 59.175 102.316 59.4106C101.026 60.7704 99.8361 62.2249 98.4379 63.4825C98.3094 63.5982 98.0662 63.7002 98.2382 64.0448C99.9469 62.3418 101.735 60.771 103.093 58.7929C104.043 57.8851 104.865 56.8525 105.536 55.7235C106.356 54.792 107.059 53.764 107.63 52.6622C106.963 53.7097 105.897 54.4916 105.552 55.7571ZM67.9222 87.6171C76.1779 85.0805 84.0048 81.3158 91.1399 76.4494C98.3257 71.548 104.7 65.8121 109.552 58.523C98.6709 72.5133 84.2876 81.4709 67.9222 87.6171Z" fill="#FF7F57"/>
<path d="M63.9443 61.3515L62.4978 61.9784C63.0683 61.1335 63.6515 60.8049 64.2342 60.48C66.9668 58.9566 69.7763 57.5879 72.6216 56.2884C77.5319 54.0455 82.2137 51.4319 86.2863 47.8297C88.876 45.5388 91.0335 42.8581 93.2559 40.2325C93.886 39.4876 94.5117 38.6821 95.3058 38.1552C95.7471 37.8631 96.4951 37.9683 96.973 37.5266C97.3154 37.9057 96.752 38.1585 96.9522 38.4669C97.7058 38.3534 98.5413 37.6971 99.1058 38.8469C99.1833 39.0047 99.4405 38.6855 99.609 38.5836C99.9927 38.3517 100.362 38.33 100.715 38.6199C101.071 38.9125 101.24 39.2356 101.129 39.7545C100.977 40.4729 100.418 40.9774 100.151 41.7732C100.816 41.6371 100.838 41.0705 101.14 40.7821C101.351 40.5801 101.443 40.105 101.873 40.2857C102.27 40.4521 102.311 40.8451 102.25 41.2195C102.2 41.5424 102.116 41.8593 102 42.1651C98.9095 50.1285 93.819 56.4622 86.5931 61.0557C82.8704 63.4223 79.0203 65.5239 74.7801 66.8332C72.7012 67.4751 70.5718 67.6102 68.4178 67.4904C67.7211 67.4518 67.0405 67.3482 66.6676 66.6062C66.5415 66.4309 66.3616 66.3016 66.1553 66.2381C64.5591 65.6043 63.8027 64.1825 63.0716 62.8054C62.7669 62.2298 63.7575 62.069 63.9443 61.3515ZM84.4577 59.1974C91.1876 55.761 97.117 48.6932 98.8635 43.8522C94.9859 50.0127 94.6334 50.3865 84.4577 59.1974ZM95.2365 38.8174C92.2131 42.1584 89.4685 45.744 86.218 48.8855C89.935 46.1641 92.5378 42.4474 95.2365 38.8174ZM94.1614 41.9174C93.2911 43.1155 92.1248 44.0834 91.5545 45.4811C92.5483 44.3795 93.5157 43.2586 94.1611 41.9182L94.1614 41.9174ZM93.8913 46.3514C94.7778 45.6466 95.4467 44.7053 95.8209 43.6364C95.1777 44.5415 94.5345 45.4465 93.8913 46.3514Z" fill="#FF7F57"/>
<path d="M113.604 41.138C112.285 42.8632 111.424 44.8748 109.96 46.5978C110.1 45.7053 112.595 41.9262 113.604 41.138Z" fill="#FF7F57"/>
</svg>
