<svg width="26" height="24" viewBox="0 0 26 24" fill="none" xmlns="http://www.w3.org/2000/svg">
<path d="M6.66887 19.2345L2.64348 22.6184C2.49771 22.741 2.31998 22.8193 2.1312 22.8443C1.94241 22.8693 1.75042 22.8399 1.57779 22.7595C1.40516 22.6791 1.25908 22.551 1.15673 22.3905C1.05437 22.2299 1 22.0434 1 21.853V2C1 1.73478 1.10536 1.48043 1.29289 1.29289C1.48043 1.10536 1.73478 1 2 1H24C24.2652 1 24.5196 1.10536 24.7071 1.29289C24.8946 1.48043 25 1.73478 25 2V18C25 18.2652 24.8946 18.5196 24.7071 18.7071C24.5196 18.8946 24.2652 19 24 19H7.31235C7.07693 19 6.84907 19.0831 6.66887 19.2345Z" stroke="#52A800" stroke-width="2" stroke-linecap="round" stroke-linejoin="round"/>
</svg>
