<svg width="59" height="14" viewBox="0 0 59 14" fill="none" xmlns="http://www.w3.org/2000/svg">
<path d="M0.157359 0.22088H5.39823C6.98505 0.22088 7.77846 0.9415 7.77846 2.38274V11.8381C7.77846 13.2794 6.98505 14 5.39823 14H0.157359V0.22088ZM5.24537 11.5761V2.64478C5.24537 2.41185 5.2017 2.259 5.11435 2.18621C5.027 2.09886 4.86686 2.05518 4.63394 2.05518H2.66861V12.1657H4.63394C4.86686 12.1657 5.027 12.1293 5.11435 12.0565C5.2017 11.9692 5.24537 11.809 5.24537 11.5761ZM12.0211 14H9.79377V0.22088H12.5452L14.8599 8.40974L17.1747 0.22088H19.9261V14H17.7206V4.32623L15.8863 11.0083H13.8554L12.0211 4.34806V14ZM22.0344 0.22088H27.1006C28.6874 0.22088 29.4808 0.9415 29.4808 2.38274V6.77197C29.4808 8.21321 28.6874 8.93383 27.1006 8.93383H24.5457V14H22.0344V0.22088ZM26.9696 6.42258V2.73213C26.9696 2.4992 26.9259 2.34634 26.8385 2.27355C26.7512 2.18621 26.5911 2.14253 26.3581 2.14253H24.5457V7.01217H26.3581C26.5911 7.01217 26.7512 6.97578 26.8385 6.90299C26.9259 6.81564 26.9696 6.6555 26.9696 6.42258ZM37.1275 12.0783H40.7961V14H34.6162V0.22088H37.1275V12.0783ZM47.5652 14L47.0411 11.1394H44.0276L43.5472 14H41.036L43.8093 0.22088H47.194L50.0983 14H47.5652ZM44.3552 9.23954H46.6917L45.4907 2.64478L44.3552 9.23954ZM56.4455 5.52726V2.64478C56.4455 2.41185 56.4019 2.259 56.3145 2.18621C56.2272 2.09886 56.0597 2.05518 55.8123 2.05518H53.8251V6.11686H55.8123C56.0597 6.11686 56.2272 6.08046 56.3145 6.00767C56.4019 5.92033 56.4455 5.76019 56.4455 5.52726ZM56.4455 11.5761V8.54076C56.4455 8.30783 56.4019 8.15497 56.3145 8.08218C56.2272 7.99484 56.0597 7.95116 55.8123 7.95116H53.8251V12.1657H55.8123C56.0597 12.1657 56.2272 12.1293 56.3145 12.0565C56.4019 11.9692 56.4455 11.809 56.4455 11.5761ZM51.3138 0.22088H56.5547C58.1415 0.22088 58.9349 0.9415 58.9349 2.38274V5.35256C58.9349 6.26972 58.6292 6.8302 58.0178 7.03401C58.6292 7.23782 58.9349 7.76191 58.9349 8.60627V11.8381C58.9349 13.2794 58.1415 14 56.5547 14H51.3138V0.22088Z" fill="white"/>
</svg>
