<svg width="180" height="58" viewBox="0 0 180 58" fill="none" xmlns="http://www.w3.org/2000/svg">
<path d="M20.44 25.4C26.6267 25.56 31.32 27.08 34.52 29.96C37.7733 32.7867 39.4 36.5467 39.4 41.24C39.4 44.3867 38.6533 47.1867 37.16 49.64C35.6667 52.04 33.4267 53.9333 30.44 55.32C27.5067 56.7067 23.96 57.4 19.8 57.4C15.7467 57.4 11.9333 56.7333 8.36 55.4C4.78667 54.0133 2.01333 52.1733 0.04 49.88L2.12 46.76C3.93333 48.7867 6.38667 50.44 9.48 51.72C12.6267 53 16.0667 53.64 19.8 53.64C24.76 53.64 28.5733 52.5467 31.24 50.36C33.9067 48.12 35.24 45.08 35.24 41.24C35.24 37.3467 33.88 34.3067 31.16 32.12C28.44 29.9333 24.36 28.84 18.92 28.84H15.4V25.88L31.96 4.68H2.12V0.999996H37.24V3.88L20.44 25.4ZM66.7294 57.4C62.4627 57.4 58.6494 56.2533 55.2894 53.96C51.9827 51.6133 49.396 48.3067 47.5294 44.04C45.716 39.7733 44.8094 34.76 44.8094 29C44.8094 23.24 45.716 18.2267 47.5294 13.96C49.396 9.69333 51.9827 6.41333 55.2894 4.12C58.6494 1.77333 62.4627 0.599997 66.7294 0.599997C70.996 0.599997 74.7827 1.77333 78.0894 4.12C81.4494 6.41333 84.036 9.69333 85.8494 13.96C87.716 18.2267 88.6494 23.24 88.6494 29C88.6494 34.76 87.716 39.7733 85.8494 44.04C84.036 48.3067 81.4494 51.6133 78.0894 53.96C74.7827 56.2533 70.996 57.4 66.7294 57.4ZM66.7294 53.64C70.2494 53.64 73.3427 52.68 76.0094 50.76C78.7294 48.7867 80.836 45.96 82.3294 42.28C83.8227 38.5467 84.5694 34.12 84.5694 29C84.5694 23.88 83.8227 19.48 82.3294 15.8C80.836 12.0667 78.7294 9.24 76.0094 7.32C73.3427 5.34666 70.2494 4.36 66.7294 4.36C63.2094 4.36 60.0894 5.34666 57.3694 7.32C54.7027 9.24 52.6227 12.0667 51.1294 15.8C49.636 19.48 48.8894 23.88 48.8894 29C48.8894 34.12 49.636 38.5467 51.1294 42.28C52.6227 45.96 54.7027 48.7867 57.3694 50.76C60.0894 52.68 63.2094 53.64 66.7294 53.64ZM116.186 57.4C111.919 57.4 108.106 56.2533 104.746 53.96C101.439 51.6133 98.8523 48.3067 96.9856 44.04C95.1723 39.7733 94.2656 34.76 94.2656 29C94.2656 23.24 95.1723 18.2267 96.9856 13.96C98.8523 9.69333 101.439 6.41333 104.746 4.12C108.106 1.77333 111.919 0.599997 116.186 0.599997C120.452 0.599997 124.239 1.77333 127.546 4.12C130.906 6.41333 133.492 9.69333 135.306 13.96C137.172 18.2267 138.106 23.24 138.106 29C138.106 34.76 137.172 39.7733 135.306 44.04C133.492 48.3067 130.906 51.6133 127.546 53.96C124.239 56.2533 120.452 57.4 116.186 57.4ZM116.186 53.64C119.706 53.64 122.799 52.68 125.466 50.76C128.186 48.7867 130.292 45.96 131.786 42.28C133.279 38.5467 134.026 34.12 134.026 29C134.026 23.88 133.279 19.48 131.786 15.8C130.292 12.0667 128.186 9.24 125.466 7.32C122.799 5.34666 119.706 4.36 116.186 4.36C112.666 4.36 109.546 5.34666 106.826 7.32C104.159 9.24 102.079 12.0667 100.586 15.8C99.0923 19.48 98.3456 23.88 98.3456 29C98.3456 34.12 99.0923 38.5467 100.586 42.28C102.079 45.96 104.159 48.7867 106.826 50.76C109.546 52.68 112.666 53.64 116.186 53.64ZM179.785 30.76H164.585V45.56H160.985V30.76H145.785V27.32H160.985V12.44H164.585V27.32H179.785V30.76Z" fill="#FF7F57"/>
</svg>
