<svg width="1762" height="81" viewBox="0 0 1762 81" fill="none" xmlns="http://www.w3.org/2000/svg">
<path d="M0.960001 105V2.18399H82.32V105H60.576V20.328H22.704V105H0.960001ZM189.617 105H167.873V20.328H142.673C142.097 24.744 141.473 29.544 140.801 34.728C140.225 39.912 139.553 45.192 138.785 50.568C138.113 55.848 137.393 60.888 136.625 65.688C135.857 70.392 135.089 74.568 134.321 78.216C133.073 84.168 131.393 89.256 129.281 93.48C127.265 97.704 124.433 100.92 120.785 103.128C117.233 105.336 112.577 106.44 106.817 106.44C103.073 106.44 99.6169 105.912 96.4489 104.856V87C97.6969 87.384 98.8969 87.72 100.049 88.008C101.297 88.296 102.641 88.44 104.081 88.44C106.865 88.44 108.977 87 110.417 84.12C111.953 81.144 113.489 75.624 115.025 67.56C115.601 64.488 116.417 59.688 117.473 53.16C118.529 46.632 119.681 39 120.929 30.264C122.273 21.432 123.521 12.072 124.673 2.18399H189.617V105ZM278.482 105L270.994 80.52H233.554L226.066 105H202.594L238.882 1.752H265.522L301.954 105H278.482ZM258.322 38.328C257.842 36.696 257.218 34.632 256.45 32.136C255.682 29.64 254.914 27.096 254.146 24.504C253.378 21.912 252.754 19.656 252.274 17.736C251.794 19.656 251.122 22.056 250.258 24.936C249.49 27.72 248.722 30.408 247.954 33C247.282 35.496 246.754 37.272 246.37 38.328L239.026 62.232H265.81L258.322 38.328ZM344.451 105H322.707V20.328H294.771V2.18399H372.387V20.328H344.451V105ZM441.228 13.416C452.46 13.704 461.388 15.672 468.012 19.32C474.732 22.872 479.532 27.48 482.412 33.144C485.388 38.808 486.876 45 486.876 51.72C486.876 56.04 486.108 60.456 484.572 64.968C483.132 69.48 480.636 73.656 477.084 77.496C473.628 81.24 468.972 84.312 463.116 86.712C457.26 89.112 449.964 90.408 441.228 90.6V106.44H421.644V90.6C412.812 90.408 405.42 89.112 399.468 86.712C393.612 84.312 388.956 81.192 385.5 77.352C382.044 73.512 379.596 69.384 378.156 64.968C376.716 60.456 375.996 56.04 375.996 51.72C375.996 45 377.436 38.808 380.316 33.144C383.292 27.48 388.092 22.872 394.716 19.32C401.436 15.672 410.412 13.704 421.644 13.416V0.743995H441.228V13.416ZM421.644 30.408C412.332 30.792 405.804 32.952 402.06 36.888C398.316 40.728 396.444 45.624 396.444 51.576C396.444 58.008 398.46 63.24 402.492 67.272C406.524 71.208 412.908 73.368 421.644 73.752V30.408ZM441.228 73.752C450.06 73.368 456.444 71.208 460.38 67.272C464.412 63.24 466.428 58.008 466.428 51.576C466.428 45.624 464.556 40.728 460.812 36.888C457.164 32.952 450.636 30.792 441.228 30.408V73.752ZM599.678 53.448C599.678 64.104 597.902 73.416 594.35 81.384C590.894 89.256 585.566 95.4 578.366 99.816C571.166 104.232 561.95 106.44 550.718 106.44C539.582 106.44 530.366 104.232 523.07 99.816C515.87 95.4 510.494 89.208 506.942 81.24C503.486 73.272 501.758 63.96 501.758 53.304C501.758 42.648 503.486 33.384 506.942 25.512C510.494 17.64 515.87 11.544 523.07 7.224C530.366 2.808 539.63 0.599997 550.862 0.599997C561.998 0.599997 571.166 2.808 578.366 7.224C585.566 11.544 590.894 17.688 594.35 25.656C597.902 33.528 599.678 42.792 599.678 53.448ZM524.654 53.448C524.654 64.2 526.718 72.696 530.846 78.936C534.974 85.08 541.598 88.152 550.718 88.152C560.03 88.152 566.702 85.08 570.734 78.936C574.766 72.696 576.782 64.2 576.782 53.448C576.782 42.6 574.766 34.104 570.734 27.96C566.702 21.816 560.078 18.744 550.862 18.744C541.646 18.744 534.974 21.816 530.846 27.96C526.718 34.104 524.654 42.6 524.654 53.448ZM653.808 2.18399C667.056 2.18399 676.704 5.06399 682.752 10.824C688.896 16.488 691.968 24.312 691.968 34.296C691.968 40.248 690.72 45.864 688.224 51.144C685.728 56.328 681.552 60.504 675.696 63.672C669.936 66.84 662.064 68.424 652.08 68.424H642.72V105H620.976V2.18399H653.808ZM652.656 20.04H642.72V50.568H649.92C656.064 50.568 660.912 49.368 664.464 46.968C668.112 44.472 669.936 40.488 669.936 35.016C669.936 25.032 664.176 20.04 652.656 20.04ZM754.886 105L730.118 24.36H729.542C729.638 26.28 729.782 29.16 729.974 33C730.166 36.84 730.358 40.968 730.55 45.384C730.742 49.704 730.838 53.64 730.838 57.192V105H711.398V2.18399H741.062L765.398 80.808H765.83L791.606 2.18399H821.27V105H800.966V56.328C800.966 53.064 801.014 49.32 801.11 45.096C801.302 40.872 801.446 36.888 801.542 33.144C801.734 29.304 801.878 26.424 801.974 24.504H801.398L774.902 105H754.886ZM910.169 105L902.681 80.52H865.241L857.753 105H834.281L870.569 1.752H897.209L933.641 105H910.169ZM890.009 38.328C889.529 36.696 888.905 34.632 888.137 32.136C887.369 29.64 886.601 27.096 885.833 24.504C885.065 21.912 884.441 19.656 883.961 17.736C883.481 19.656 882.809 22.056 881.945 24.936C881.177 27.72 880.409 30.408 879.641 33C878.969 35.496 878.441 37.272 878.057 38.328L870.713 62.232H897.497L890.009 38.328ZM1056.64 105H1034.89V60.648H994.142V105H972.398V2.18399H994.142V42.504H1034.89V2.18399H1056.64V105ZM1175.82 53.448C1175.82 64.104 1174.04 73.416 1170.49 81.384C1167.03 89.256 1161.71 95.4 1154.51 99.816C1147.31 104.232 1138.09 106.44 1126.86 106.44C1115.72 106.44 1106.51 104.232 1099.21 99.816C1092.01 95.4 1086.63 89.208 1083.08 81.24C1079.63 73.272 1077.9 63.96 1077.9 53.304C1077.9 42.648 1079.63 33.384 1083.08 25.512C1086.63 17.64 1092.01 11.544 1099.21 7.224C1106.51 2.808 1115.77 0.599997 1127 0.599997C1138.14 0.599997 1147.31 2.808 1154.51 7.224C1161.71 11.544 1167.03 17.688 1170.49 25.656C1174.04 33.528 1175.82 42.792 1175.82 53.448ZM1100.79 53.448C1100.79 64.2 1102.86 72.696 1106.99 78.936C1111.11 85.08 1117.74 88.152 1126.86 88.152C1136.17 88.152 1142.84 85.08 1146.87 78.936C1150.91 72.696 1152.92 64.2 1152.92 53.448C1152.92 42.6 1150.91 34.104 1146.87 27.96C1142.84 21.816 1136.22 18.744 1127 18.744C1117.79 18.744 1111.11 21.816 1106.99 27.96C1102.86 34.104 1100.79 42.6 1100.79 53.448ZM1229.08 2.18399C1242.81 2.18399 1253.18 4.10399 1260.19 7.944C1267.2 11.784 1270.7 18.552 1270.7 28.248C1270.7 34.104 1269.31 39.048 1266.52 43.08C1263.84 47.112 1259.95 49.56 1254.86 50.424V51.144C1258.32 51.816 1261.44 53.016 1264.22 54.744C1267 56.472 1269.21 58.968 1270.84 62.232C1272.48 65.496 1273.29 69.816 1273.29 75.192C1273.29 84.504 1269.93 91.8 1263.21 97.08C1256.49 102.36 1247.28 105 1235.56 105H1197.12V2.18399H1229.08ZM1231.53 42.936C1237.87 42.936 1242.24 41.928 1244.64 39.912C1247.13 37.896 1248.38 34.968 1248.38 31.128C1248.38 27.192 1246.94 24.36 1244.06 22.632C1241.18 20.904 1236.62 20.04 1230.38 20.04H1218.86V42.936H1231.53ZM1218.86 60.216V87H1233.12C1239.64 87 1244.2 85.752 1246.8 83.256C1249.39 80.664 1250.68 77.256 1250.68 73.032C1250.68 69.192 1249.34 66.12 1246.65 63.816C1244.06 61.416 1239.31 60.216 1232.4 60.216H1218.86ZM1387.18 53.448C1387.18 64.104 1385.4 73.416 1381.85 81.384C1378.39 89.256 1373.07 95.4 1365.87 99.816C1358.67 104.232 1349.45 106.44 1338.22 106.44C1327.08 106.44 1317.87 104.232 1310.57 99.816C1303.37 95.4 1297.99 89.208 1294.44 81.24C1290.99 73.272 1289.26 63.96 1289.26 53.304C1289.26 42.648 1290.99 33.384 1294.44 25.512C1297.99 17.64 1303.37 11.544 1310.57 7.224C1317.87 2.808 1327.13 0.599997 1338.36 0.599997C1349.5 0.599997 1358.67 2.808 1365.87 7.224C1373.07 11.544 1378.39 17.688 1381.85 25.656C1385.4 33.528 1387.18 42.792 1387.18 53.448ZM1312.15 53.448C1312.15 64.2 1314.22 72.696 1318.35 78.936C1322.47 85.08 1329.1 88.152 1338.22 88.152C1347.53 88.152 1354.2 85.08 1358.23 78.936C1362.27 72.696 1364.28 64.2 1364.28 53.448C1364.28 42.6 1362.27 34.104 1358.23 27.96C1354.2 21.816 1347.58 18.744 1338.36 18.744C1329.15 18.744 1322.47 21.816 1318.35 27.96C1314.22 34.104 1312.15 42.6 1312.15 53.448ZM1473.42 2.18399V20.184H1430.22V105H1408.48V2.18399H1473.42ZM1579.69 53.448C1579.69 64.104 1577.92 73.416 1574.37 81.384C1570.91 89.256 1565.58 95.4 1558.38 99.816C1551.18 104.232 1541.97 106.44 1530.73 106.44C1519.6 106.44 1510.38 104.232 1503.09 99.816C1495.89 95.4 1490.51 89.208 1486.96 81.24C1483.5 73.272 1481.77 63.96 1481.77 53.304C1481.77 42.648 1483.5 33.384 1486.96 25.512C1490.51 17.64 1495.89 11.544 1503.09 7.224C1510.38 2.808 1519.65 0.599997 1530.88 0.599997C1542.01 0.599997 1551.18 2.808 1558.38 7.224C1565.58 11.544 1570.91 17.688 1574.37 25.656C1577.92 33.528 1579.69 42.792 1579.69 53.448ZM1504.67 53.448C1504.67 64.2 1506.73 72.696 1510.86 78.936C1514.99 85.08 1521.61 88.152 1530.73 88.152C1540.05 88.152 1546.72 85.08 1550.75 78.936C1554.78 72.696 1556.8 64.2 1556.8 53.448C1556.8 42.6 1554.78 34.104 1550.75 27.96C1546.72 21.816 1540.09 18.744 1530.88 18.744C1521.66 18.744 1514.99 21.816 1510.86 27.96C1506.73 34.104 1504.67 42.6 1504.67 53.448ZM1626.73 105V2.18399H1708.09V105H1686.34V20.328H1648.47V105H1626.73ZM1827.33 53.448C1827.33 64.104 1825.56 73.416 1822.01 81.384C1818.55 89.256 1813.22 95.4 1806.02 99.816C1798.82 104.232 1789.61 106.44 1778.37 106.44C1767.24 106.44 1758.02 104.232 1750.73 99.816C1743.53 95.4 1738.15 89.208 1734.6 81.24C1731.14 73.272 1729.41 63.96 1729.41 53.304C1729.41 42.648 1731.14 33.384 1734.6 25.512C1738.15 17.64 1743.53 11.544 1750.73 7.224C1758.02 2.808 1767.29 0.599997 1778.52 0.599997C1789.65 0.599997 1798.82 2.808 1806.02 7.224C1813.22 11.544 1818.55 17.688 1822.01 25.656C1825.56 33.528 1827.33 42.792 1827.33 53.448ZM1752.31 53.448C1752.31 64.2 1754.37 72.696 1758.5 78.936C1762.63 85.08 1769.25 88.152 1778.37 88.152C1787.69 88.152 1794.36 85.08 1798.39 78.936C1802.42 72.696 1804.44 64.2 1804.44 53.448C1804.44 42.6 1802.42 34.104 1798.39 27.96C1794.36 21.816 1787.73 18.744 1778.52 18.744C1769.3 18.744 1762.63 21.816 1758.5 27.96C1754.37 34.104 1752.31 42.6 1752.31 53.448ZM1932.44 105H1907.67L1870.38 52.872V105H1848.63V2.18399H1870.38V52.008L1907.24 2.18399H1930.42L1892.98 51.576L1932.44 105ZM2035.88 53.448C2035.88 64.104 2034.11 73.416 2030.55 81.384C2027.1 89.256 2021.77 95.4 2014.57 99.816C2007.37 104.232 1998.15 106.44 1986.92 106.44C1975.79 106.44 1966.57 104.232 1959.27 99.816C1952.07 95.4 1946.7 89.208 1943.15 81.24C1939.69 73.272 1937.96 63.96 1937.96 53.304C1937.96 42.648 1939.69 33.384 1943.15 25.512C1946.7 17.64 1952.07 11.544 1959.27 7.224C1966.57 2.808 1975.83 0.599997 1987.07 0.599997C1998.2 0.599997 2007.37 2.808 2014.57 7.224C2021.77 11.544 2027.1 17.688 2030.55 25.656C2034.11 33.528 2035.88 42.792 2035.88 53.448ZM1960.86 53.448C1960.86 64.2 1962.92 72.696 1967.05 78.936C1971.18 85.08 1977.8 88.152 1986.92 88.152C1996.23 88.152 2002.91 85.08 2006.94 78.936C2010.97 72.696 2012.99 64.2 2012.99 53.448C2012.99 42.6 2010.97 34.104 2006.94 27.96C2002.91 21.816 1996.28 18.744 1987.07 18.744C1977.85 18.744 1971.18 21.816 1967.05 27.96C1962.92 34.104 1960.86 42.6 1960.86 53.448ZM2135.73 105H2113.98V20.328H2088.78C2088.21 24.744 2087.58 29.544 2086.91 34.728C2086.33 39.912 2085.66 45.192 2084.89 50.568C2084.22 55.848 2083.5 60.888 2082.73 65.688C2081.97 70.392 2081.2 74.568 2080.43 78.216C2079.18 84.168 2077.5 89.256 2075.39 93.48C2073.37 97.704 2070.54 100.92 2066.89 103.128C2063.34 105.336 2058.69 106.44 2052.93 106.44C2049.18 106.44 2045.73 105.912 2042.56 104.856V87C2043.81 87.384 2045.01 87.72 2046.16 88.008C2047.41 88.296 2048.75 88.44 2050.19 88.44C2052.97 88.44 2055.09 87 2056.53 84.12C2058.06 81.144 2059.6 75.624 2061.13 67.56C2061.71 64.488 2062.53 59.688 2063.58 53.16C2064.64 46.632 2065.79 39 2067.04 30.264C2068.38 21.432 2069.63 12.072 2070.78 2.18399H2135.73V105ZM2220.85 105H2161.66V2.18399H2220.85V20.04H2183.41V42.648H2218.26V60.504H2183.41V87H2220.85V105ZM2326.48 105H2304.74V60.648H2263.99V105H2242.24V2.18399H2263.99V42.504H2304.74V2.18399H2326.48V105ZM2352.35 2.18399H2371.93V51.864C2371.93 54.264 2371.89 56.952 2371.79 59.928C2371.69 62.904 2371.6 65.832 2371.5 68.712C2371.41 71.496 2371.31 73.944 2371.21 76.056C2371.12 78.072 2371.02 79.464 2370.93 80.232H2371.36L2418.88 2.18399H2444.94V105H2425.5V55.608C2425.5 53.016 2425.55 50.184 2425.65 47.112C2425.74 43.944 2425.84 40.92 2425.93 38.04C2426.13 35.16 2426.27 32.664 2426.37 30.552C2426.56 28.344 2426.7 26.904 2426.8 26.232H2426.22L2378.56 105H2352.35V2.18399ZM2505.46 65.544L2481.41 105H2457.22L2486.45 59.784C2483.67 58.632 2480.88 56.952 2478.1 54.744C2475.31 52.44 2473.01 49.416 2471.19 45.672C2469.36 41.832 2468.45 37.128 2468.45 31.56C2468.45 22.056 2471.86 14.808 2478.67 9.816C2485.49 4.72799 2495.04 2.18399 2507.33 2.18399H2540.74V105H2518.99V65.544H2505.46ZM2508.19 20.04C2502.63 20.04 2498.26 21.048 2495.09 23.064C2492.02 25.08 2490.48 28.44 2490.48 33.144C2490.48 37.656 2491.97 41.256 2494.95 43.944C2498.02 46.536 2502.63 47.832 2508.77 47.832H2518.99V20.04H2508.19Z" fill="white" fill-opacity="0.6"/>
</svg>
