<svg width="93" height="64" viewBox="0 0 93 64" fill="none" xmlns="http://www.w3.org/2000/svg">
<circle cx="61" cy="32" r="32" fill="#FF7F57" fill-opacity="0.1"/>
<g clip-path="url(#clip0_1327_2882)">
<path d="M21.5832 4H4.08319C1.8316 4 0 5.8316 0 8.08319V18.5832C0 20.8352 1.8316 22.6668 4.08319 22.6668H21.5832C23.8352 22.6668 25.6668 20.8352 25.6668 18.5832V8.08319C25.6668 5.8316 23.8352 4 21.5832 4Z" fill="#FF7F57"/>
<path d="M21.5832 27.3333H4.08319C1.8316 27.3333 0 29.1649 0 31.4169V55.9169C0 58.1685 1.8316 60.0001 4.08319 60.0001H21.5832C23.8352 60.0001 25.6668 58.1685 25.6668 55.9169V31.4169C25.6668 29.1649 23.8352 27.3333 21.5832 27.3333Z" fill="#FF7F57"/>
<path d="M51.9166 41.3333H34.4166C32.1646 41.3333 30.333 43.1649 30.333 45.4169V55.9169C30.333 58.1685 32.1646 60.0001 34.4166 60.0001H51.9166C54.1682 60.0001 55.9998 58.1685 55.9998 55.9169V45.4169C55.9998 43.1649 54.1682 41.3333 51.9166 41.3333Z" fill="#FF7F57"/>
<path d="M51.9166 4H34.4166C32.1646 4 30.333 5.8316 30.333 8.08319V32.5832C30.333 34.8352 32.1646 36.6668 34.4166 36.6668H51.9166C54.1682 36.6668 55.9998 34.8352 55.9998 32.5832V8.08319C55.9998 5.8316 54.1682 4 51.9166 4V4Z" fill="#FF7F57"/>
</g>
<defs>
<clipPath id="clip0_1327_2882">
<rect width="56" height="56" fill="white" transform="translate(0 4)"/>
</clipPath>
</defs>
</svg>
