<svg width="258" height="95" viewBox="0 0 258 95" fill="none" xmlns="http://www.w3.org/2000/svg">
<path d="M29.492 1.59999V94H22.76V7.67199H0.188V1.59999H29.492ZM111.007 1.59999V6.352L71.2752 94H63.8832L103.219 7.67199H51.3432V25.36H44.7432V1.59999H111.007ZM152.524 94.66C145.484 94.66 139.192 92.768 133.648 88.984C128.192 85.112 123.924 79.656 120.844 72.616C117.852 65.576 116.356 57.304 116.356 47.8C116.356 38.296 117.852 30.024 120.844 22.984C123.924 15.944 128.192 10.532 133.648 6.748C139.192 2.876 145.484 0.939994 152.524 0.939994C159.564 0.939994 165.812 2.876 171.268 6.748C176.812 10.532 181.08 15.944 184.072 22.984C187.152 30.024 188.692 38.296 188.692 47.8C188.692 57.304 187.152 65.576 184.072 72.616C181.08 79.656 176.812 85.112 171.268 88.984C165.812 92.768 159.564 94.66 152.524 94.66ZM152.524 88.456C158.332 88.456 163.436 86.872 167.836 83.704C172.324 80.448 175.8 75.784 178.264 69.712C180.728 63.552 181.96 56.248 181.96 47.8C181.96 39.352 180.728 32.092 178.264 26.02C175.8 19.86 172.324 15.196 167.836 12.028C163.436 8.77199 158.332 7.14399 152.524 7.14399C146.716 7.14399 141.568 8.77199 137.08 12.028C132.68 15.196 129.248 19.86 126.784 26.02C124.32 32.092 123.088 39.352 123.088 47.8C123.088 56.248 124.32 63.552 126.784 69.712C129.248 75.784 132.68 80.448 137.08 83.704C141.568 86.872 146.716 88.456 152.524 88.456ZM257.463 50.704H232.383V75.124H226.443V50.704H201.363V45.028H226.443V20.476H232.383V45.028H257.463V50.704Z" fill="#FF7F57"/>
</svg>
