<svg width="93" height="64" viewBox="0 0 93 64" fill="none" xmlns="http://www.w3.org/2000/svg">
<circle cx="61" cy="32" r="32" fill="#FF7F57" fill-opacity="0.1"/>
<path d="M27.9998 4C16.1937 4 6.58789 13.6058 6.58789 25.4119V45.1763C6.58789 47.9012 8.80444 50.1178 11.529 50.1178C14.254 50.1178 16.4705 47.9012 16.4705 45.1763V28.7059C16.4705 25.9814 14.254 23.7648 11.529 23.7648C10.9744 23.7648 10.4498 23.8772 9.95117 24.0464C10.654 14.6935 18.4717 7.29407 27.9998 7.29407C37.5226 7.29407 45.3383 14.6867 46.0475 24.0331C45.5519 23.8635 45.0242 23.7648 44.4705 23.7648C41.7455 23.7648 39.529 25.9814 39.529 28.7059V45.1763C39.529 47.9012 41.7455 50.1178 44.4705 50.1178C45.0507 50.1178 45.5997 49.999 46.1176 49.8145V51.7648C46.1176 52.6736 45.3776 53.4119 44.4705 53.4119H32.6375C31.9552 51.4987 30.1441 50.1178 27.9998 50.1178C25.2752 50.1178 23.0587 52.3344 23.0587 55.0589C23.0587 57.7834 25.2752 60 27.9998 60C30.1441 60 31.9552 58.6187 32.6375 56.7059H44.4705C47.1951 56.7059 49.4116 54.4894 49.4116 51.7648C49.4116 41.8578 49.4116 35.3295 49.4116 25.4119C49.4116 13.6058 39.8058 4 27.9998 4V4Z" fill="#FF7F57"/>
<path d="M52.7061 27.3623V46.52C54.6188 45.8381 56.0001 44.027 56.0001 41.8823V32.0001C56.0001 29.8557 54.6188 28.0446 52.7061 27.3623Z" fill="#FF7F57"/>
<path d="M0 32.0001V41.8823C0 44.027 1.38129 45.8381 3.29407 46.52V27.3623C1.38129 28.0446 0 29.8557 0 32.0001Z" fill="#FF7F57"/>
</svg>
