<svg width="93" height="64" viewBox="0 0 93 64" fill="none" xmlns="http://www.w3.org/2000/svg">
<circle cx="61" cy="32" r="32" fill="#FF7F57" fill-opacity="0.1"/>
<path d="M47.83 10.3391H46.1926V50.5672C46.1926 53.2397 44.0172 55.4151 41.3447 55.4151H24.754H11.561V56.9063C11.561 58.614 12.947 59.9999 14.6546 59.9999H31.2394H47.8242C49.5318 59.9999 50.9177 58.614 50.9177 56.9063V13.4327C50.9178 11.7251 49.5376 10.3391 47.83 10.3391Z" fill="#FF7F57"/>
<path d="M24.7541 53.6608H41.3389C43.0465 53.6608 44.4324 52.2749 44.4324 50.5673V10.3392V7.09357C44.4324 5.38596 43.0465 4 41.3389 4H24.7541H19.2394V5.02339C19.2511 5.12865 19.257 5.23977 19.257 5.35088V12.0936V13.8246C19.257 16.2281 17.3038 18.1813 14.9003 18.1813H13.1693H6.42657C6.33885 18.1813 6.24529 18.1754 6.15757 18.1696H5.08154V50.5673C5.08154 52.2749 6.46751 53.6608 8.17511 53.6608H11.5669H24.7541ZM25.3798 43.1462H14.5669C13.7599 43.1462 13.1049 42.4912 13.1049 41.6842C13.1049 40.8771 13.7599 40.2222 14.5669 40.2222H25.3856C26.1927 40.2222 26.8476 40.8771 26.8476 41.6842C26.8476 42.4912 26.1868 43.1462 25.3798 43.1462ZM36.1985 35.6843H14.5669C13.7599 35.6843 13.1049 35.0292 13.1049 34.2223C13.1049 33.4152 13.7599 32.7603 14.5669 32.7603H36.1985C37.0055 32.7603 37.6605 33.4152 37.6605 34.2223C37.6605 35.0292 37.0055 35.6843 36.1985 35.6843ZM14.5669 24.8363H36.1985C37.0055 24.8363 37.6605 25.4912 37.6605 26.2982C37.6605 27.1053 37.0055 27.7602 36.1985 27.7602H14.5669C13.7599 27.7602 13.1049 27.1053 13.1049 26.2982C13.1049 25.4912 13.7599 24.8363 14.5669 24.8363Z" fill="#FF7F57"/>
<path d="M6.42688 16.4269H14.9006C14.9064 16.4269 14.9181 16.4269 14.9239 16.4269C16.3392 16.4152 17.4853 15.269 17.497 13.8538C17.497 13.8479 17.497 13.8362 17.497 13.8304V5.35085C17.497 4.56722 16.8538 4.04675 16.1872 4.04675C15.8655 4.04675 15.5439 4.16371 15.2749 4.43272L5.5029 14.2046C4.68419 15.0234 5.26314 16.4269 6.42688 16.4269Z" fill="#FF7F57"/>
</svg>
