<svg width="92" height="64" viewBox="0 0 92 64" fill="none" xmlns="http://www.w3.org/2000/svg">
<circle cx="60" cy="32" r="32" fill="#FF7F57" fill-opacity="0.1"/>
<g clip-path="url(#clip0_1327_2890)">
<path d="M54.8518 4.00696C43.9201 3.81096 31.4531 9.5253 23.5618 18.3896C16.0204 18.532 8.67744 21.6236 3.27111 27.03C2.95611 27.3403 2.84411 27.8046 2.98178 28.2246C3.12178 28.647 3.48578 28.9526 3.92445 29.0156L12.9171 30.3036L11.8064 31.5473C11.3934 32.0093 11.4144 32.7116 11.8531 33.1503L26.8494 48.1466C27.0758 48.373 27.3744 48.4873 27.6754 48.4873C27.9531 48.4873 28.2308 48.3893 28.4524 48.191L29.6961 47.0803L30.9841 56.073C31.0471 56.5116 31.3924 56.8336 31.8101 56.9736C31.9174 57.0086 32.0294 57.025 32.1438 57.025C32.4751 57.025 32.8134 56.8803 33.0468 56.6493C38.3784 51.3176 41.4701 43.9746 41.6124 36.4333C50.4861 28.5256 56.2471 16.0633 55.9928 5.14563C55.9764 4.52496 55.4748 4.0233 54.8518 4.00696ZM44.0998 24.1483C42.9634 25.2846 41.4701 25.854 39.9744 25.854C38.4788 25.854 36.9854 25.2846 35.8491 24.1483C33.5764 21.8733 33.5764 18.1726 35.8491 15.8976C38.1241 13.6226 41.8248 13.6226 44.0998 15.8976C46.3748 18.1726 46.3748 21.8756 44.0998 24.1483Z" fill="#FF7F57"/>
<path d="M6.35565 43.445C3.85898 45.9417 0.431312 57.2211 0.0486456 58.4974C-0.075021 58.9081 0.0393123 59.3537 0.340312 59.6571C0.564312 59.8811 0.860646 60.0001 1.16631 60.0001C1.27831 60.0001 1.39031 59.9837 1.50231 59.9511C2.77865 59.5684 14.058 56.1407 16.5546 53.644C19.3663 50.8324 19.3663 46.2567 16.5546 43.445C13.7406 40.6334 9.16731 40.6357 6.35565 43.445Z" fill="#FF7F57"/>
</g>
<defs>
<clipPath id="clip0_1327_2890">
<rect width="56" height="56" fill="white" transform="translate(0 4)"/>
</clipPath>
</defs>
</svg>
