<svg width="179" height="69" viewBox="0 0 179 69" fill="none" xmlns="http://www.w3.org/2000/svg">
<path d="M2.98654 18.4723H18.2064C23.0691 18.4723 25.5005 20.5782 25.5005 24.79V48.6249C25.5005 52.875 23.0691 55 18.2064 55H2.98654V18.4723ZM17.2875 47.9357V25.5366C17.2875 24.5794 16.7706 24.1008 15.7368 24.1008H11.1995V49.3715H15.7368C16.7706 49.3715 17.2875 48.8929 17.2875 47.9357ZM37.6966 55H30.46V18.4723H39.4196L45.4501 39.1483L51.4806 18.4723H60.4403V55H53.2036V30.4759L48.4941 47.0742H42.4061L37.6966 30.5333V55ZM65.6268 18.4723H80.6744C85.4988 18.4723 87.911 20.5782 87.911 24.79V35.8746C87.911 40.1247 85.4988 42.2498 80.6744 42.2498H73.7823V55H65.6268V18.4723ZM79.698 34.7834V25.9386C79.698 24.9814 79.2002 24.5028 78.2047 24.5028H73.7823V36.2192H78.2047C79.2002 36.2192 79.698 35.7406 79.698 34.7834ZM110.239 48.9695H120.75V55H102.084V18.4723H110.239V48.9695ZM140.053 55L138.789 48.3951H130.461L129.198 55H121.099L129.37 18.4723H139.823L148.323 55H140.053ZM131.61 42.4221H137.583L134.596 26.9724L131.61 42.4221ZM165.518 32.3712V25.5366C165.518 24.5794 165.002 24.1008 163.968 24.1008H159.258V33.807H163.968C165.002 33.807 165.518 33.3284 165.518 32.3712ZM165.518 47.9357V40.8139C165.518 40.3162 165.404 39.9716 165.174 39.7801C164.944 39.5504 164.542 39.4355 163.968 39.4355H159.258V49.3715H163.968C165.002 49.3715 165.518 48.8929 165.518 47.9357ZM151.16 18.4723H166.323C171.185 18.4723 173.617 20.5782 173.617 24.79V31.2225C173.617 34.0559 172.755 35.8363 171.032 36.5638C172.755 37.2148 173.617 38.8612 173.617 41.5031V48.6249C173.617 52.875 171.185 55 166.323 55H151.16V18.4723Z" fill="#191D2A"/>
<path d="M134.61 27.1214L141 55.0395H128.22L134.61 27.1214Z" fill="#191D2A"/>
<g clip-path="url(#clip0_1327_2934)">
<path d="M136.855 35.888C136.093 36.6497 134.854 36.6497 134.092 35.888C133.33 35.1263 133.33 33.8873 134.092 33.1256C134.854 32.3639 136.093 32.3639 136.855 33.1256C137.616 33.8873 137.616 35.1263 136.855 35.888Z" fill="#F8EAE9"/>
<path d="M132.732 33.8187C133.304 33.2466 133.304 32.319 132.732 31.7469C132.16 31.1748 131.232 31.1748 130.66 31.7469C130.088 32.319 130.088 33.2466 130.66 33.8187C131.232 34.3908 132.16 34.3908 132.732 33.8187Z" fill="#F8EAE9"/>
<path d="M139.165 37.2215L130.187 37.2215C129.647 37.2215 129.21 37.658 129.21 38.198C129.21 38.7381 129.647 39.1746 130.187 39.1746L130.379 39.1746L130.379 52.4942C130.379 53.642 130.826 54.7214 131.638 55.5329C133.313 57.2083 136.038 57.2083 137.714 55.5329C138.525 54.7214 138.972 53.642 138.972 52.4942L138.972 39.1739L139.164 39.1739C139.704 39.1739 140.14 38.7374 140.14 38.1974C140.141 37.658 139.705 37.2215 139.165 37.2215ZM135.366 53.7366C134.985 54.1179 134.366 54.1179 133.985 53.7366C133.604 53.3554 133.604 52.7366 133.985 52.3554C134.366 51.9742 134.985 51.9742 135.366 52.3554C135.747 52.7366 135.747 53.3554 135.366 53.7366ZM136.057 48.9024C135.676 49.2836 135.057 49.2836 134.676 48.9024C134.294 48.5212 134.294 47.9024 134.676 47.5212C135.057 47.14 135.676 47.14 136.057 47.5212C136.438 47.9024 136.438 48.5212 136.057 48.9024ZM137.019 42.9957C136.828 43.3576 136.492 43.6524 136.109 43.7629L135.259 43.9998C134.301 44.2767 133.504 45.0751 133.223 46.0399L132.991 46.8762C132.89 47.2249 132.64 47.5371 132.332 47.7353L132.332 39.1746L137.018 39.1746L137.019 42.9957Z" fill="#F8EAE9"/>
<path d="M133.757 42.5143C133.743 43.0633 133.325 43.4805 132.776 43.495L131.271 43.495L131.271 41.5337L132.776 41.5337C133.315 41.5337 133.757 41.9756 133.757 42.5143Z" fill="#F8EAE9"/>
</g>
<defs>
<clipPath id="clip0_1327_2934">
<rect width="23.4399" height="23.4399" fill="white" transform="translate(116.72 43.3776) rotate(-45)"/>
</clipPath>
</defs>
</svg>
