<svg width="577" height="623" viewBox="0 0 577 623" fill="none" xmlns="http://www.w3.org/2000/svg">
<path opacity="0.6" d="M487.17 321.752C487.17 321.752 485.76 322.003 484.253 322.151C482.843 322.402 481.336 322.55 481.336 322.55C474.867 315.719 470.785 312.174 468.569 309.694C466.25 307.312 465.795 305.994 465.233 304.874C464.671 303.753 464.31 302.64 461.876 300.653C459.543 298.67 455.341 295.721 446.674 291.617C442.179 291.36 436.436 289.559 429.699 287.524C422.967 285.388 415.248 282.818 407.209 280.837C399.066 278.952 391.037 276.671 383.866 275.622C376.702 274.372 370.721 273.664 367.001 274.135C367.104 274.038 365.915 273.697 364.126 273.334C363.729 273.221 363.033 273.096 362.833 273.089C362.536 272.979 362.236 272.969 361.94 272.858C361.344 272.737 360.651 272.513 359.954 272.389C357.179 271.592 354.704 270.805 355.142 269.719C353.183 271.353 350.184 271.249 346.899 270.734C343.613 270.22 339.838 269.388 336.232 269.463C333.601 270.272 337.99 270.725 339.844 272.091C339.844 272.091 338.845 272.056 337.245 272.001C335.745 271.948 333.742 271.979 331.743 271.91C327.74 271.871 323.737 271.832 323.737 271.832C317.69 270.12 316.371 267.772 323.069 268.005C320.477 267.715 317.288 267.303 313.599 266.875C309.91 266.447 305.721 266.001 301.133 265.541C292.155 264.629 281.485 263.458 269.619 262.145C258.052 260.842 245.693 259.312 233.344 257.481C221.095 255.655 208.764 253.324 196.949 250.512C185.135 247.699 173.938 244.407 163.958 240.657C153.878 236.904 145.008 232.892 137.545 228.729C135.677 227.763 133.916 226.601 132.147 225.639C131.261 225.207 130.479 224.68 129.696 224.152C128.914 223.624 128.131 223.097 127.345 222.669C125.777 221.714 124.412 220.665 122.943 219.713C122.258 219.289 121.575 218.765 120.889 218.341L120.4 218.023L120.203 217.916C120.106 217.813 120.01 217.71 119.81 217.703C119.617 217.496 119.421 217.389 119.224 217.282C119.028 217.175 118.931 217.071 118.835 216.968C118.738 216.865 118.738 216.865 118.638 216.861C118.538 216.858 118.638 216.861 118.638 216.861C118.328 217.151 118.014 217.54 117.704 217.83C117.29 218.216 116.876 218.602 116.566 218.891C116.152 219.277 115.741 219.563 115.328 219.949C114.914 220.335 114.603 220.625 114.19 221.011C113.465 221.686 112.641 222.359 111.917 223.034C110.372 224.282 108.931 225.433 107.59 226.588C106.869 227.163 106.252 227.642 105.534 228.118C105.224 228.407 104.817 228.593 104.507 228.883C104.2 229.072 103.89 229.362 103.583 229.552C102.352 230.41 101.221 231.271 99.9931 232.029C101.221 231.271 102.555 230.317 103.993 229.265C105.534 228.118 107.379 226.881 109.031 225.436C109.859 224.664 110.886 223.899 111.814 223.131C112.741 222.362 113.672 221.493 114.603 220.625C115.021 220.139 115.535 219.756 116.048 219.374C116.462 218.988 117.286 218.316 116.979 218.505L116.876 218.602C116.759 219.098 117.313 220.419 116.637 222.597C114.438 222.521 113.969 221.604 113.979 221.304L113.983 221.204L113.879 221.3C112.638 222.459 111.4 223.517 110.165 224.475C109.031 225.436 107.896 226.398 106.765 227.26C106.252 227.642 105.634 228.121 105.121 228.504L104.3 229.076L103.579 229.652C102.655 230.32 101.421 231.278 99.5828 232.316C99.3793 232.409 99.0725 232.598 98.969 232.695C98.7656 232.788 98.5586 232.981 98.3552 233.074C97.9449 233.36 97.5345 233.646 97.0242 233.928C96.1036 234.497 94.983 235.059 93.9623 235.624C90.0832 237.791 85.5181 239.535 82.3945 240.127C79.1708 240.716 78.3814 240.388 79.1743 240.616C79.2743 240.619 79.3743 240.623 79.4708 240.726L79.5707 240.73C79.8741 240.64 76.6435 241.429 78.0571 241.078L78.0606 240.978L78.1641 240.881L78.5813 240.395C79.1229 239.213 79.3812 240.423 79.6707 240.733L79.6673 240.833L79.7672 240.837L79.9637 240.944L80.3601 241.057C80.5566 241.164 80.8531 241.275 81.0496 241.382C81.6425 241.602 81.932 241.913 82.525 242.134C82.525 242.134 82.7215 242.241 83.0145 242.451C83.3075 242.661 83.7005 242.875 84.0935 243.089C84.483 243.403 84.8759 243.617 85.1689 243.827C85.4619 244.037 85.7549 244.248 85.7549 244.248C85.7549 244.248 86.1444 244.562 86.7304 244.982C87.0234 245.193 87.4129 245.507 87.8024 245.82C88.1919 246.134 88.5814 246.448 88.9675 246.862C89.843 247.593 90.6185 248.321 91.2975 248.945C91.9765 249.569 92.3626 249.983 92.3626 249.983C96.1334 253.817 99.3868 258.135 101.861 261.824C102.147 262.235 102.43 262.745 102.716 263.155L102.906 263.462L102.999 263.666L103.095 263.769C104.559 267.724 99.7944 255.046 106.392 272.592L106.892 272.61C107.592 272.634 108.292 272.658 108.892 272.679C109.192 272.689 109.492 272.7 109.892 272.714L110.392 272.731C110.491 272.735 110.591 272.738 110.591 272.738L110.795 272.645L111.102 272.456L110.998 272.552C110.895 272.649 110.795 272.645 110.691 272.742C110.285 272.928 109.878 273.114 109.474 273.2L109.374 273.196L109.378 273.096L109.381 272.996C109.385 272.896 109.488 272.8 109.488 272.8C109.492 272.7 109.592 272.703 109.695 272.607C109.799 272.51 109.905 272.314 110.009 272.217C110.112 272.121 110.216 272.024 110.316 272.028C110.519 271.935 110.623 271.838 110.723 271.842C110.823 271.845 111.023 271.852 111.223 271.859C111.323 271.863 111.523 271.87 111.623 271.873C111.822 271.88 112.022 271.887 112.322 271.897C112.622 271.908 112.922 271.918 113.326 271.832C113.826 271.849 114.329 271.767 115.032 271.691C116.539 271.543 118.449 271.309 121.859 271.127C125.679 270.659 129.806 270.002 133.829 269.441C135.943 269.114 137.956 268.783 139.866 268.55C141.78 268.216 143.69 267.982 145.403 267.641C149.027 267.066 152.344 266.68 155.453 266.488C158.663 266.299 161.859 266.51 165.045 267.021C163.145 266.956 158.026 264.475 164.156 263.787C164.945 267.018 180.629 262.157 183.61 265.664C186.617 265.568 193.205 266.097 198.218 265.871C203.227 265.745 206.758 264.967 203.438 262.549C206.658 264.963 225.095 267.305 213.945 268.419C220.13 269.035 226.198 270.146 230.821 269.606L222.778 267.725C244.063 268.765 255.922 273.18 270.741 270.192C270.741 270.192 268.659 269.619 266.676 269.049C264.694 268.48 262.612 267.907 262.612 267.907C265.908 268.122 269.107 268.233 272.103 268.437C275.099 268.641 277.891 268.938 280.484 269.229C285.666 269.909 289.727 271.151 292.346 273.544C292.346 273.544 288.836 273.723 285.327 273.901C281.817 274.08 278.311 274.158 278.311 274.158C289.602 274.75 298.7 275.066 307.512 274.972C309.715 274.948 311.918 274.925 314.025 274.798C316.228 274.774 318.438 274.551 320.644 274.427C322.851 274.304 325.161 274.083 327.47 273.863C329.78 273.643 332.194 273.327 334.707 273.014L327.602 272.967C330.725 272.375 335.549 271.842 341.679 271.154C344.692 270.858 348.109 270.476 351.729 270.001C355.346 269.626 359.269 269.062 363.389 268.604C371.633 267.589 380.69 266.202 390.257 264.532C394.991 263.696 399.932 262.666 404.872 261.636C407.393 261.123 409.817 260.507 412.34 259.894L413.251 259.625L414.361 259.363L416.985 258.754C417.891 258.585 418.802 258.316 419.708 258.148C420.619 257.879 421.529 257.61 422.536 257.445C426.273 256.474 430.014 255.402 433.652 254.427C435.472 253.89 437.289 253.453 439.209 252.919C441.03 252.381 442.754 251.741 444.578 251.103C448.122 249.925 451.567 248.743 455.111 247.565C456.021 247.296 456.832 247.024 457.745 246.656C458.556 246.383 459.369 246.011 460.283 245.643C461.907 244.998 463.535 244.254 465.158 243.61C468.41 242.221 471.558 240.929 474.706 239.637C475.516 239.365 476.23 238.989 476.944 238.614C477.657 238.238 478.371 237.862 479.185 237.49C480.612 236.739 482.036 236.088 483.464 235.336C486.315 233.934 489.067 232.528 491.819 231.122C494.374 229.609 496.829 228.093 499.28 226.676C501.632 225.257 503.983 223.837 506.232 222.513C506.842 222.234 507.356 221.852 507.87 221.469C508.383 221.087 508.894 220.804 509.407 220.421C510.432 219.756 511.359 218.988 512.383 218.323C514.331 216.989 516.08 215.648 517.925 214.411C518.749 213.739 519.669 213.17 520.49 212.598C521.311 212.026 521.935 211.347 522.659 210.671C525.449 208.166 527.825 206.046 529.794 204.112C530.828 203.147 531.759 202.279 532.487 201.503C533.118 200.624 533.746 199.845 534.167 199.259C534.167 199.259 533.349 199.731 532.125 200.389C531.001 201.051 529.07 201.885 527.243 202.622C523.685 204.2 520.03 205.675 520.03 205.675C520.03 205.675 521.168 204.614 522.719 203.166C523.547 202.394 524.478 201.525 525.513 200.56C526.03 200.078 526.547 199.595 527.064 199.113C527.482 198.627 528.002 198.044 528.42 197.558C532.068 193.38 535.82 189.106 535.82 189.106C534.789 189.971 535.485 192.999 536.177 196.126C536.769 199.249 537.262 202.37 535.738 203.017C538.531 200.412 542.155 196.934 546.704 192.788C548.78 190.657 550.866 188.227 553.056 185.701C555.249 183.074 557.349 180.244 559.564 177.018C565.472 168.314 571.256 157.404 574.338 143.597C575.877 136.743 576.641 129.162 576.312 121.343C575.983 113.524 574.465 105.363 571.615 98.0566C568.769 90.6504 564.989 84.2128 560.298 78.0439C555.607 71.8749 550.006 65.9747 543.688 60.55L541.255 58.5636L540.09 57.5222C539.7 57.2083 539.211 56.891 538.821 56.5772L533.651 52.6939L528.173 49.0002C526.315 47.7344 524.351 46.6652 522.489 45.4995C514.74 40.926 506.477 36.7352 497.797 33.0303C489.017 29.322 479.916 26.2031 470.601 23.4772C468.222 22.794 465.94 22.2142 463.561 21.531C461.179 20.9477 458.797 20.3645 456.415 19.7813C454.033 19.1981 451.647 18.7148 449.261 18.2316C446.876 17.7483 444.594 17.1685 442.205 16.7853C439.815 16.402 437.43 15.9188 435.141 15.539C432.752 15.1557 430.466 14.676 428.173 14.3961C425.881 14.1163 423.492 13.733 421.199 13.4532C418.906 13.1734 416.617 12.7936 414.425 12.5172C412.132 12.2374 409.939 11.9611 407.743 11.7847C405.651 11.5118 403.058 11.2216 401.958 11.1835C399.166 10.8863 396.47 10.6925 393.877 10.4023C372.82 8.56993 356.926 7.91788 348.945 7.14021C333.907 4.91627 346.333 1.64405 346.551 1.15109C337.328 1.53152 335.394 2.46538 333.77 3.10968C332.143 3.85397 330.825 4.3087 323.123 4.14133C318.942 3.4956 324.017 1.46969 326.334 1.04965C319.614 1.4169 313.35 0.198313 312.895 1.78411C321.262 2.97558 317.71 7.25668 321.219 9.98115C321.219 9.98115 316.316 9.91098 311.417 9.74085C306.515 9.67069 301.712 9.60403 301.712 9.60403L302.606 6.93233C298.303 6.88301 291.741 14.2628 272.862 13.1066C240.954 12.399 206.361 14.1006 174.411 14.5927C174.867 13.0069 181.514 11.8363 188.261 10.6692C183.955 10.7198 177.429 11.294 173.457 10.3553C181.276 12.9291 160.063 12.6929 166.134 13.7046C142.957 21.0078 112.385 16.4427 91.8736 21.9366C91.0696 24.9117 81.3686 50.6009 72.064 76.4041C62.7595 102.207 53.948 128.228 54.2264 131.741C47.9103 132.022 41.6941 132.307 39.8084 131.841C41.5559 133.403 53.8709 133.33 60.4217 132.056L61.3534 128.285C76.3442 126.103 64.9867 130.313 79.7393 129.223C80.7349 132.261 67.1752 133.592 55.3255 134.682C66.0476 134.354 76.9003 136.032 81.0314 132.371C91.2155 133.126 80.0997 136.143 92.2903 136.766C100.848 135.362 112.081 131.848 122.144 133.199L122.027 133.695C146.28 135.738 158.78 127.464 181.02 129.838L178.679 130.958C186.535 132.432 201.85 129.56 215.909 131.15C211.924 130.611 208.294 128.483 216.82 127.978C233.082 129.544 244.071 127.323 255.906 129.535L267.228 126.325C274.037 126.261 283.249 126.181 294.265 126.063C305.28 125.945 317.898 125.782 331.413 125.751C338.118 125.784 345.124 125.827 352.226 125.973C359.328 126.12 366.527 126.37 373.822 126.723C377.421 126.848 381.113 127.177 384.709 127.402C386.505 127.564 388.302 127.727 390.201 127.793L391.597 127.941L391.797 127.948L391.897 127.952L391.997 127.955L392.297 127.966C393.001 127.89 393.7 127.914 394.504 127.842C396.007 127.794 397.803 127.957 399.492 128.316C401.282 128.678 403.06 129.34 404.529 130.292C405.311 130.82 405.79 131.437 406.063 132.248C406.338 132.958 406.414 133.661 406.29 134.358C406.144 135.654 405.413 136.529 404.893 137.112C404.172 137.687 403.965 137.88 403.762 137.973L403.276 137.556C401.72 139.104 398.958 140.81 395.314 141.984C394.907 142.17 394.404 142.253 393.897 142.436L393.493 142.522C393.393 142.518 393.393 142.518 393.29 142.615L393.19 142.611L392.99 142.604C391.78 142.863 390.57 143.121 389.263 143.276C382.916 144.457 376.275 145.427 369.442 146.191C355.772 147.818 341.233 148.515 326.215 148.594C296.279 148.755 263.928 146.431 232.765 144.448C217.182 143.506 201.796 142.671 187.295 142.268C172.694 141.861 158.98 141.885 146.551 142.355C142.673 141.619 138.484 141.173 133.992 140.817C129.396 140.558 124.294 140.48 118.984 140.596C113.675 140.712 107.952 141.214 102.225 141.816C96.4984 142.418 90.6579 143.417 85.1174 144.425C88.2341 144.033 90.3372 144.006 91.5335 144.148C92.7298 144.289 93.1192 144.603 92.8054 144.993C92.4916 145.382 91.5744 145.851 90.0573 146.299C89.3471 146.574 88.4368 146.843 87.4266 147.108C86.4164 147.373 85.4062 147.639 84.196 147.897C82.0756 148.424 80.1586 148.858 78.2381 149.392C76.3177 149.926 74.5972 150.466 72.8767 151.007C69.4322 152.189 66.5981 153.092 63.957 154.201C62.6364 154.756 61.5192 155.217 60.4021 155.679C59.285 156.141 58.2678 156.606 57.3506 157.075C56.4334 157.543 55.6197 157.916 54.9059 158.291C54.0922 158.663 53.5819 158.946 52.7647 159.418C49.7028 161.113 48.1649 162.161 47.1408 162.826C46.627 163.209 46.3201 163.398 46.1098 163.691C46.0063 163.788 45.9029 163.884 45.7994 163.981C45.7959 164.081 45.7959 164.081 45.6925 164.177C45.5751 164.674 45.3543 165.267 42.8853 167.183L41.4509 168.134L41.3509 168.131L41.2475 168.227L41.0406 168.42C40.8372 168.513 40.7302 168.71 40.5268 168.803C40.2164 169.092 39.8061 169.378 39.3958 169.664C38.5751 170.237 37.751 170.909 36.8234 171.677C35.8958 172.446 34.8647 173.311 33.7337 174.173C32.5992 175.134 31.3612 176.192 30.0163 177.447C27.33 179.856 24.2196 182.951 20.571 187.129C17.0189 191.41 12.9252 196.874 8.95166 204.643C8.41357 205.726 7.872 206.908 7.32696 208.191C7.10617 208.784 6.78191 209.473 6.56112 210.066C6.44725 210.462 6.23344 210.855 6.12304 211.152C5.90572 211.645 5.79186 212.041 5.57454 212.534C5.24335 213.424 4.90866 214.413 4.57747 215.302C4.46013 215.799 4.24279 216.292 4.12892 216.688L4.01508 217.085L4.0116 217.185L4.00466 217.385C3.99771 217.585 3.89078 217.781 3.78038 218.078L3.67001 218.374C3.44227 219.167 3.21801 219.86 3.09025 220.656C2.38621 223.635 1.7752 226.817 1.26071 230.102C0.846187 233.391 0.628169 236.787 0.606627 240.29C0.647582 241.993 0.685029 243.796 0.825964 245.503C0.894695 246.406 0.963414 247.309 1.03215 248.213L1.18698 249.519L1.34182 250.826C1.58273 252.536 1.9236 254.25 2.26103 256.063C2.42974 256.97 2.59849 257.877 2.77067 258.683C2.94285 259.49 3.21503 260.3 3.38721 261.107C3.83156 262.724 4.27241 264.441 4.81674 266.062C5.36107 267.682 5.91236 269.103 6.55667 270.727C7.7453 273.971 9.15472 276.623 10.5572 279.474C11.305 281.002 12.0666 282.129 12.8213 283.457C13.5795 284.684 14.4307 286.115 15.1888 287.343C16.8086 289.702 18.5215 292.264 20.1517 294.322C21.0133 295.453 21.875 296.584 22.7401 297.615C23.6052 298.646 24.4703 299.677 25.4353 300.712C26.3004 301.743 27.269 302.678 28.1376 303.609C29.0061 304.54 29.9712 305.574 30.9433 306.409C34.621 310.04 38.4091 313.375 42.4041 316.517C43.3796 317.251 44.3517 318.086 45.4271 318.824L46.2096 319.351L46.5991 319.665L46.8921 319.876L48.1641 320.721C49.8255 321.879 51.5835 323.142 53.245 324.3C67.0297 333.788 82.7383 342.642 99.1954 350.121C115.756 357.502 133.062 363.609 150.112 368.405C184.41 378.105 218.075 382.978 244.986 386.315C258.442 387.983 270.408 389.3 280.379 390.447C285.264 391.017 289.749 391.573 293.738 392.012C297.726 392.451 301.012 392.965 303.801 393.362C316.051 392.286 329.331 393.248 342.093 394.692C343.69 394.848 345.282 395.103 346.878 395.259L348.075 395.4L348.375 395.411C348.575 395.418 348.775 395.425 348.975 395.432C349.774 395.459 350.571 395.587 351.371 395.615C352.97 395.67 354.573 395.626 356.487 395.292C356.487 395.292 356.18 395.482 355.873 395.671C355.566 395.861 355.259 396.05 355.259 396.05C356.163 395.982 357.359 396.123 358.948 396.479C360.538 396.834 362.316 397.496 364.078 398.659C365.839 399.821 367.583 401.483 368.507 403.718C369.53 405.955 369.536 408.658 368.55 411.126C367.567 413.495 365.991 415.642 364.232 417.283C362.47 419.023 360.718 420.464 359.077 421.608C358.256 422.18 357.435 422.753 356.718 423.228C356.308 423.514 356.001 423.704 355.69 423.993C355.487 424.086 355.384 424.183 355.177 424.376C354.973 424.469 354.766 424.662 354.766 424.662L354.663 424.758L354.559 424.855C354.559 424.855 354.559 424.855 354.356 424.948C353.842 425.33 353.232 425.61 352.718 425.992C351.694 426.657 350.673 427.222 349.753 427.791C347.911 428.928 346.274 429.973 344.943 430.827L348.184 429.739C339.453 436.142 334.691 437.779 330.454 438.733C326.116 439.683 322.207 439.848 313.397 442.745C314.469 443.583 314.121 444.972 312.969 446.434C311.814 447.995 309.752 449.725 307.29 451.442C304.828 453.158 301.966 454.86 299.211 456.366C296.456 457.872 293.911 459.085 292.08 459.923L292.018 458.819C290.594 459.471 289.067 460.218 287.232 461.156C285.501 461.996 283.467 462.927 281.429 463.957C279.392 464.987 277.15 466.111 274.809 467.231C272.468 468.351 270.027 469.467 267.582 470.684C265.037 471.896 262.493 473.109 259.952 474.222C257.31 475.332 254.766 476.545 252.125 477.654C246.942 479.877 241.67 481.796 236.909 483.432L236.906 480.629C229.265 484.468 217.629 488.068 206.413 491.082C200.858 492.491 195.307 493.799 190.463 494.932C185.623 495.966 181.485 496.923 178.558 497.622C164.863 499.949 147.277 501.941 128.594 503.795C123.874 504.232 119.147 504.868 114.427 505.305C109.707 505.742 104.88 506.375 100.057 506.908C95.2335 507.441 90.5067 508.078 85.7799 508.715C83.4664 509.035 81.053 509.351 78.7361 509.771C77.6294 509.933 76.4193 510.191 75.3125 510.353C74.3058 510.518 73.299 510.684 72.2923 510.849C72.2923 510.849 71.9958 510.738 71.3994 510.618C70.803 510.497 70.1135 510.173 69.2241 509.841C67.5453 509.182 65.4735 508.31 64.005 507.358C62.5366 506.406 61.5715 505.371 61.2994 504.561C61.1133 504.154 61.1237 503.854 61.1306 503.654C61.1376 503.454 61.1411 503.354 61.1411 503.354C61.1411 503.354 60.9376 503.447 60.7307 503.64C60.6272 503.737 60.5238 503.833 60.4238 503.83C60.3238 503.826 60.3204 503.926 60.3204 503.926C60.3204 503.926 59.8719 505.312 58.8887 507.681C57.9056 510.049 56.4878 513.403 54.5458 517.44C53.5765 519.408 52.4004 521.569 51.1207 523.827C49.8411 526.085 48.4615 528.34 46.975 530.79C44.0054 535.592 40.629 540.58 37.3456 545.771C35.5522 548.412 33.9587 551.059 32.3583 553.907C30.7579 556.754 29.3575 559.608 28.0571 562.466C26.7566 565.324 25.6526 568.288 24.7486 571.26C24.5244 571.953 24.2967 572.746 24.0724 573.439C23.9585 573.835 23.8481 574.132 23.8342 574.532C23.7204 574.928 23.7065 575.328 23.5926 575.724C23.3371 577.317 23.185 578.813 23.1295 580.413C23.0739 582.013 23.1183 583.616 23.3627 585.226C23.6071 586.836 23.9515 588.45 24.3958 590.067C24.8402 591.684 25.4845 593.308 26.3288 594.939C27.173 596.57 28.1173 598.204 29.2684 599.645C30.4161 601.187 31.7638 602.735 33.3148 604.19C34.0904 604.918 34.8659 605.646 35.7414 606.377C36.6169 607.108 37.4959 607.739 38.4749 608.374C40.3294 609.739 42.7907 610.926 45.352 612.116C47.8167 613.203 50.485 614.196 53.1567 615.09L51.4667 617.634C51.4667 617.634 52.5664 617.672 54.2626 617.831C55.1624 617.862 56.0623 617.893 57.0621 617.928C58.0619 617.963 59.0617 617.997 60.1615 618.036C62.1645 618.005 64.1641 618.075 65.6673 618.027C67.0705 617.975 68.0738 617.91 68.0738 617.91C69.2736 617.952 70.2733 617.986 71.2731 618.021C72.2729 618.056 73.2728 618.091 74.176 618.022C75.8792 617.981 77.5823 617.94 78.989 617.789C80.3956 617.637 81.7023 617.482 82.7091 617.317C83.7158 617.152 84.8225 616.99 85.5259 616.915C88.5496 616.319 89.8563 616.164 89.5077 617.553C89.5077 617.553 88.4045 617.615 86.6979 617.756C85.7946 617.825 84.7913 617.89 83.688 617.952C82.4848 618.01 81.2816 618.068 79.9783 618.123C79.275 618.199 78.6751 618.178 77.9718 618.254C77.2685 618.329 76.6686 618.309 75.9687 618.284C74.6655 618.339 73.4623 618.397 72.3625 618.359C71.2593 618.421 70.3594 618.39 69.6596 618.366C68.9597 618.341 68.5598 618.327 68.5598 618.327C70.8594 618.407 72.459 618.463 73.7587 618.508C74.9585 618.55 75.8549 618.681 76.4547 618.702C77.6476 618.943 77.5371 619.24 76.7234 619.612C75.1959 620.36 70.7587 621.307 67.0281 622.078C71.0273 622.217 74.4336 622.135 77.6364 622.146C79.1361 622.198 80.7393 622.154 82.039 622.199C82.7389 622.223 83.3388 622.244 84.0386 622.268C84.7385 622.293 85.3384 622.313 85.8348 622.431C87.0589 621.773 86.5659 621.555 85.4696 621.417C84.3733 621.279 82.4702 621.313 81.3774 621.075C82.3841 620.91 83.3943 620.644 84.4045 620.379C85.4148 620.114 86.425 619.849 87.4352 619.583C89.4556 619.053 91.576 618.526 93.7964 618.003C96.0168 617.479 98.2338 617.056 100.444 616.832C102.657 616.508 104.964 616.388 107.163 616.465C113.89 615.898 114.255 616.911 114.92 617.935C115.585 618.959 116.45 619.99 124.39 619.065C165.194 614.376 206.167 607.691 246.552 597.782C266.742 592.877 286.764 587.066 306.71 580.551C311.671 578.922 316.636 577.192 321.601 575.463C324.036 574.546 326.566 573.733 329.001 572.817C331.435 571.9 333.969 570.987 336.407 569.971C346.244 566.309 356.194 562.25 366.463 557.701C368.759 557.881 366.524 558.805 364.369 560.331C376.486 554.446 388.295 548.75 399.932 542.247C402.791 540.645 405.753 538.946 408.611 537.343C411.473 535.641 414.339 533.838 417.204 532.036L419.356 530.609L422.835 528.428C425.19 526.908 427.342 525.481 429.4 523.851L435.666 519.264L438.848 516.972C439.362 516.589 439.876 516.207 440.39 515.824L441.835 514.573C446.748 511.44 450.214 509.659 452.858 508.449C455.403 507.236 457.13 506.495 458.958 505.758C458.044 506.127 460.12 503.997 464.361 500.04C464.672 499.75 464.879 499.557 465.189 499.268C465.499 498.978 465.71 498.685 466.02 498.396C466.541 497.813 467.162 497.234 467.786 496.555C469.031 495.297 470.382 493.842 471.834 492.391C472.562 491.616 473.29 490.84 474.117 490.068C474.531 489.682 474.945 489.296 475.262 488.807C475.676 488.421 475.993 487.931 476.407 487.545C477.869 485.794 479.535 483.95 481.204 482.006C484.739 478.225 487.698 473.723 491.164 469.038C494.63 464.354 497.61 459.252 500.497 453.947C503.387 448.542 505.885 442.923 508.089 437.094C508.641 435.611 509.193 434.129 509.645 432.643C510.097 431.157 510.549 429.671 511.001 428.186C511.805 425.211 512.613 422.135 513.22 419.053C514.535 412.893 515.254 406.611 515.469 400.413C515.684 394.214 515.3 387.994 514.508 381.961C513.025 369.897 509.301 358.957 505.208 350.006C503.057 345.627 500.893 341.648 498.812 338.172C496.727 334.797 494.724 331.924 492.905 329.559C492.043 328.428 491.281 327.3 490.513 326.373C489.744 325.445 489.169 324.724 488.593 324.004C487.938 322.679 487.263 321.955 487.17 321.752Z" fill="white"/>
</svg>
