<svg width="20" height="20" viewBox="0 0 20 20" fill="none" xmlns="http://www.w3.org/2000/svg">
<path d="M16.4259 2.80298L1.86903 6.90876C1.74657 6.9433 1.63757 7.0144 1.55659 7.11255C1.47562 7.2107 1.42653 7.33123 1.41589 7.45802C1.40524 7.58482 1.43356 7.71184 1.49704 7.82211C1.56052 7.93239 1.65615 8.02066 1.77114 8.07513L8.45949 11.2433C8.58994 11.3051 8.69498 11.4101 8.75677 11.5406L11.9249 18.2289C11.9794 18.3439 12.0677 18.4395 12.1779 18.503C12.2882 18.5665 12.4152 18.5948 12.542 18.5842C12.6688 18.5735 12.7894 18.5244 12.8875 18.4435C12.9857 18.3625 13.0568 18.2535 13.0913 18.131L17.1971 3.57417C17.2272 3.46725 17.2284 3.35421 17.2003 3.24671C17.1723 3.13921 17.1161 3.04113 17.0375 2.96257C16.9589 2.88401 16.8609 2.82781 16.7534 2.79976C16.6459 2.77171 16.5328 2.77282 16.4259 2.80298Z" stroke="#52A800" stroke-width="2" stroke-linecap="round" stroke-linejoin="round"/>
<path d="M8.66116 11.3389L16.875 3.12506" stroke="#52A800" stroke-width="2" stroke-linecap="round" stroke-linejoin="round"/>
</svg>
