<svg width="304" height="106" viewBox="0 0 304 106" fill="none" xmlns="http://www.w3.org/2000/svg">
<path d="M33.188 1.39999V105H25.64V8.20799H0.332V1.39999H33.188ZM93.9478 105.74C86.0545 105.74 78.9998 103.619 72.7838 99.376C66.6665 95.0347 61.8811 88.9173 58.4278 81.024C55.0731 73.1307 53.3958 63.856 53.3958 53.2C53.3958 42.544 55.0731 33.2693 58.4278 25.376C61.8811 17.4827 66.6665 11.4147 72.7838 7.172C78.9998 2.83066 86.0545 0.659994 93.9478 0.659994C101.841 0.659994 108.846 2.83066 114.964 7.172C121.18 11.4147 125.965 17.4827 129.32 25.376C132.773 33.2693 134.5 42.544 134.5 53.2C134.5 63.856 132.773 73.1307 129.32 81.024C125.965 88.9173 121.18 95.0347 114.964 99.376C108.846 103.619 101.841 105.74 93.9478 105.74ZM93.9478 98.784C100.46 98.784 106.182 97.008 111.116 93.456C116.148 89.8053 120.045 84.576 122.808 77.768C125.57 70.8613 126.952 62.672 126.952 53.2C126.952 43.728 125.57 35.588 122.808 28.78C120.045 21.8733 116.148 16.644 111.116 13.092C106.182 9.44133 100.46 7.61599 93.9478 7.61599C87.4358 7.61599 81.6638 9.44133 76.6318 13.092C71.6985 16.644 67.8504 21.8733 65.0878 28.78C62.3251 35.588 60.9438 43.728 60.9438 53.2C60.9438 62.672 62.3251 70.8613 65.0878 77.768C67.8504 84.576 71.6985 89.8053 76.6318 93.456C81.6638 97.008 87.4358 98.784 93.9478 98.784ZM185.442 105.74C177.549 105.74 170.494 103.619 164.278 99.376C158.161 95.0347 153.375 88.9173 149.922 81.024C146.567 73.1307 144.89 63.856 144.89 53.2C144.89 42.544 146.567 33.2693 149.922 25.376C153.375 17.4827 158.161 11.4147 164.278 7.172C170.494 2.83066 177.549 0.659994 185.442 0.659994C193.335 0.659994 200.341 2.83066 206.458 7.172C212.674 11.4147 217.459 17.4827 220.814 25.376C224.267 33.2693 225.994 42.544 225.994 53.2C225.994 63.856 224.267 73.1307 220.814 81.024C217.459 88.9173 212.674 95.0347 206.458 99.376C200.341 103.619 193.335 105.74 185.442 105.74ZM185.442 98.784C191.954 98.784 197.677 97.008 202.61 93.456C207.642 89.8053 211.539 84.576 214.302 77.768C217.065 70.8613 218.446 62.672 218.446 53.2C218.446 43.728 217.065 35.588 214.302 28.78C211.539 21.8733 207.642 16.644 202.61 13.092C197.677 9.44133 191.954 7.61599 185.442 7.61599C178.93 7.61599 173.158 9.44133 168.126 13.092C163.193 16.644 159.345 21.8733 156.582 28.78C153.819 35.588 152.438 43.728 152.438 53.2C152.438 62.672 153.819 70.8613 156.582 77.768C159.345 84.576 163.193 89.8053 168.126 93.456C173.158 97.008 178.93 98.784 185.442 98.784ZM303.101 56.456H274.981V83.836H268.321V56.456H240.201V50.092H268.321V22.564H274.981V50.092H303.101V56.456Z" fill="#FF7F57"/>
</svg>
