<svg width="518" height="109" viewBox="0 0 518 109" fill="none" xmlns="http://www.w3.org/2000/svg">
<path d="M33.7194 0.695994H77.1794C91.0647 0.695994 98.0074 6.70933 98.0074 18.736V86.796C98.0074 98.932 91.0647 105 77.1794 105H33.7194V0.695994ZM74.5554 84.828V20.868C74.5554 18.1347 73.0794 16.768 70.1274 16.768H57.1714V88.928H70.1274C73.0794 88.928 74.5554 87.5613 74.5554 84.828ZM132.833 105H112.169V0.695994H137.753L154.973 59.736L172.193 0.695994H197.777V105H177.113V34.972L163.665 82.368H146.281L132.833 35.136V105ZM212.587 0.695994H255.555C269.331 0.695994 276.219 6.70933 276.219 18.736V50.388C276.219 62.524 269.331 68.592 255.555 68.592H235.875V105H212.587V0.695994ZM252.767 47.272V22.016C252.767 19.2827 251.346 17.916 248.503 17.916H235.875V51.372H248.503C251.346 51.372 252.767 50.0053 252.767 47.272Z" fill="#DDE6FC"/>
<path d="M330.535 87.78H360.547V105H307.247V0.695994H330.535V87.78ZM415.667 105L412.059 86.14H388.279L384.671 105H361.547L385.163 0.695994H415.011L439.283 105H415.667ZM391.559 69.084H408.615L400.087 24.968L391.559 69.084ZM488.384 40.384V20.868C488.384 18.1347 486.908 16.768 483.956 16.768H470.508V44.484H483.956C486.908 44.484 488.384 43.1173 488.384 40.384ZM488.384 84.828V64.492C488.384 63.0707 488.056 62.0867 487.4 61.54C486.744 60.884 485.596 60.556 483.956 60.556H470.508V88.928H483.956C486.908 88.928 488.384 87.5613 488.384 84.828ZM447.384 0.695994H490.68C504.565 0.695994 511.508 6.70933 511.508 18.736V37.104C511.508 45.1947 509.048 50.2787 504.128 52.356C509.048 54.2147 511.508 58.916 511.508 66.46V86.796C511.508 98.932 504.565 105 490.68 105H447.384V0.695994Z" fill="#DDE6FC"/>
</svg>
