<svg width="93" height="64" viewBox="0 0 93 64" fill="none" xmlns="http://www.w3.org/2000/svg">
<circle cx="61" cy="32" r="32" fill="#FF7F57" fill-opacity="0.1"/>
<g clip-path="url(#clip0_1327_3112)">
<path d="M18.6663 22.6665C29.3494 22.6665 37.332 18.4433 37.332 14.667C37.332 10.8911 29.3492 6.66772 18.6663 6.66772C7.98331 6.66772 0.000732422 10.8911 0.000732422 14.667C0.000732422 18.4433 7.98313 22.6665 18.6663 22.6665Z" fill="#FF7F57"/>
<path d="M18.6655 54.6654C20.2248 54.6654 21.7256 54.5747 23.1532 54.4095C21.9498 52.8631 20.9547 51.147 20.2092 49.3039C19.6969 49.3212 19.1829 49.3331 18.6654 49.3331C12.561 49.3331 6.78013 48.1235 2.388 45.9274C1.52319 45.4949 0.72737 45.0304 0 44.5386V46.6661C0 50.442 7.9824 54.6654 18.6655 54.6654Z" fill="#FF7F57"/>
<path d="M18.6655 43.9994C18.7202 43.9994 18.7741 43.9985 18.8287 43.9983C18.7193 43.1243 18.6623 42.234 18.6623 41.3308C18.6623 40.428 18.7192 39.5383 18.8287 38.6649C18.7741 38.6649 18.7201 38.6669 18.6655 38.6669C12.5612 38.6669 6.78042 37.4573 2.38811 35.2612C1.52313 34.8288 0.727126 34.3642 -0.000244141 33.8726V35.9999C-6.63431e-05 39.776 7.98233 43.9994 18.6655 43.9994Z" fill="#FF7F57"/>
<path d="M18.6655 33.3324C19.1946 33.3324 19.7166 33.3218 20.232 33.3015C21.0599 31.2705 22.1912 29.3946 23.5706 27.7309C21.9736 27.907 20.3323 28.0003 18.6655 28.0003C12.5612 28.0003 6.78042 26.7907 2.38811 24.5946C1.52313 24.162 0.727126 23.6976 -0.000244141 23.2058V25.3333C-6.63431e-05 29.1094 7.98233 33.3324 18.6655 33.3324Z" fill="#FF7F57"/>
<path d="M26.6666 32.4911C25.5127 34.2258 24.6882 36.1974 24.2827 38.3161C24.0954 39.2927 23.9966 40.3003 23.9966 41.3306C23.9966 42.1053 24.0531 42.867 24.16 43.6125C24.4226 45.444 24.9963 47.1757 25.8259 48.7533C26.6964 50.4088 27.848 51.8943 29.2176 53.1451C32.0638 55.7447 35.8491 57.3324 39.9984 57.3324C48.8217 57.3324 56.0001 50.154 56.0001 41.3306C56.0001 32.5071 48.8217 25.3289 39.9984 25.3289C39.0864 25.3289 38.1923 25.4067 37.3214 25.5539C32.8857 26.3041 29.0652 28.8855 26.6666 32.4911Z" fill="#FF7F57"/>
</g>
<defs>
<clipPath id="clip0_1327_3112">
<rect width="56" height="56" fill="white" transform="translate(0 4)"/>
</clipPath>
</defs>
</svg>
