<svg width="93" height="64" viewBox="0 0 93 64" fill="none" xmlns="http://www.w3.org/2000/svg">
<circle cx="61" cy="32" r="32" fill="#FF7F57" fill-opacity="0.1"/>
<g clip-path="url(#clip0_1327_3077)">
<path d="M51.6465 8.31689C45.8874 2.56104 36.5198 2.56104 30.7608 8.31689L18.5845 20.4932L32.4088 34.3175C35.2541 31.9481 38.8614 30.4646 42.8445 30.4646C45.1291 30.4646 47.3032 30.9391 49.2813 31.7866L51.6465 29.2027C57.4038 23.4452 57.4038 14.076 51.6465 8.31689Z" fill="#FF7F57"/>
<path d="M30.1077 36.657L16.2641 22.8135L4.34685 34.7425C-1.41054 40.4999 -1.41054 49.8691 4.34685 55.6282C10.1058 61.3837 19.5828 61.4935 25.3419 55.7374L27.7578 53.31C26.9104 51.3318 26.4358 49.1578 26.4358 46.8731C26.4359 42.9923 27.8468 39.4694 30.1077 36.657Z" fill="#FF7F57"/>
<path d="M29.7173 46.8731C29.7173 53.5607 34.7368 59.0187 41.2033 59.8345V33.9116C34.7368 34.7274 29.7173 40.1852 29.7173 46.8731Z" fill="#FF7F57"/>
<path d="M44.4856 33.9116V59.8345C50.9521 59.0187 55.9716 53.5607 55.9716 46.873C55.9716 40.1853 50.9522 34.7274 44.4856 33.9116Z" fill="#FF7F57"/>
</g>
<defs>
<clipPath id="clip0_1327_3077">
<rect width="56" height="56" fill="white" transform="translate(0 4)"/>
</clipPath>
</defs>
</svg>
