<svg width="93" height="64" viewBox="0 0 93 64" fill="none" xmlns="http://www.w3.org/2000/svg">
<circle cx="61" cy="32" r="32" fill="#FF7F57" fill-opacity="0.1"/>
<path d="M28 35.2812C28.9061 35.2812 29.6406 34.5467 29.6406 33.6406C29.6406 32.7345 28.9061 32 28 32C27.0939 32 26.3594 32.7345 26.3594 33.6406C26.3594 34.5467 27.0939 35.2812 28 35.2812Z" fill="#FF7F57"/>
<path d="M28 4C12.5827 4 0 16.5835 0 32C0 47.4176 12.5835 60 28 60C43.4175 60 56 47.4165 56 32C56 16.5827 43.4165 4 28 4ZM28 10.6719C38.6447 10.6719 47.4927 18.5106 49.0757 28.7188H43.3861C39.7787 28.7188 36.3513 27.2712 33.9828 24.7472C30.7453 21.2969 25.255 21.2958 22.0172 24.7471C19.6487 27.2712 16.2213 28.7188 12.6138 28.7188H6.92431C8.5073 18.5106 17.3553 10.6719 28 10.6719ZM28 38.5625C25.2862 38.5625 23.0781 36.3547 23.0781 33.6406C23.0781 30.9266 25.2862 28.7188 28 28.7188C30.714 28.7188 32.9219 30.9266 32.9219 33.6406C32.9219 36.3547 30.714 38.5625 28 38.5625ZM8.13969 39.7762C10.0177 39.0395 11.3737 38.5625 13.2344 38.5625C19.2159 38.5625 23.8677 43.8928 22.9667 49.8817H22.9628C22.829 50.7984 22.5656 51.6866 22.1857 52.5226C15.759 50.6993 10.5581 45.9314 8.13969 39.7762ZM33.8156 52.5221C33.4253 51.6641 33.1676 50.776 33.0372 49.8817H33.0333C31.9834 42.903 38.4256 37.1448 45.1033 38.8418C45.8072 39.0208 46.6881 39.3165 47.8602 39.7763C45.442 45.931 40.2417 50.6986 33.8156 52.5221Z" fill="#FF7F57"/>
</svg>
