<svg width="93" height="64" viewBox="0 0 93 64" fill="none" xmlns="http://www.w3.org/2000/svg">
<circle cx="61" cy="32" r="32" fill="#FF7F57" fill-opacity="0.1"/>
<g clip-path="url(#clip0_1327_3095)">
<path d="M30.2801 8.52352C30.9135 7.68404 30.8117 5.90348 30.7215 4.33279C30.7181 4.26509 30.7143 4.19887 30.7105 4.13163C29.8227 4.04685 28.924 4 28.0144 4C24.529 4 21.194 4.64209 18.116 5.80611C20.3117 6.86129 23.7105 8.67748 27.4883 11.361C28.7773 10.2517 29.7495 9.2277 30.2801 8.52352Z" fill="#FF7F57"/>
<path d="M44.4673 24.5006C43.0873 24.6565 41.9234 24.883 40.928 25.2007C45.6863 33.5086 47.5416 44.0046 47.9956 51.6086C52.7096 46.8055 55.7033 40.3122 55.9864 33.1199C52.7382 29.1273 48.4353 24.0505 44.4673 24.5006Z" fill="#FF7F57"/>
<path d="M16.1788 17.3294C19.5222 16.6337 22.6632 14.9509 25.1677 13.1747C19.9429 9.57625 15.5852 7.70874 14.7183 7.35327C9.29782 10.2835 4.96023 14.9523 2.43677 20.6093C5.71677 19.3024 9.26907 18.6375 12.7581 17.9897C13.8869 17.78 15.0536 17.5634 16.1788 17.3294Z" fill="#FF7F57"/>
<path d="M35.5325 18.1435C35.8309 18.4434 36.1285 18.7485 36.4241 19.0593C37.5148 20.2043 38.5044 21.4566 39.412 22.7816C40.7336 22.2826 42.2895 21.9287 44.152 21.7181C48.5403 21.2218 52.4424 24.698 55.7914 28.5251C55.0734 22.7234 52.5851 17.4724 48.8775 13.3313C46.8537 13.5752 44.5975 13.9884 42.2979 14.6746C40.7894 15.1251 38.387 16.3493 35.5325 18.1435Z" fill="#FF7F57"/>
<path d="M31.8483 32.6035C32.9968 28.7137 34.327 25.9097 36.9043 24.0896C36.1308 22.9792 35.2984 21.9371 34.3968 20.9904C33.9797 20.5523 33.5579 20.1292 33.1342 19.7136C22.794 26.7519 8.62976 39.6809 7.3418 50.883C11.6411 55.587 17.525 58.8129 24.1487 59.7281C26.5605 54.9264 28.8304 45.1651 30.1797 39.3597C30.828 36.5713 31.3875 34.1636 31.8483 32.6035Z" fill="#FF7F57"/>
<path d="M20.1241 26.4352C23.7294 23.1129 27.5369 20.1338 31.0193 17.7394C29.8585 16.7124 28.6941 15.7657 27.5511 14.8975C24.6586 17.0718 20.8716 19.2133 16.7494 20.0706C15.595 20.3109 14.4128 20.5305 13.27 20.7426C8.86668 21.5603 4.63975 22.3523 1.08504 24.3356C0.392771 26.7723 0.0141602 29.3414 0.0141602 32C0.0141602 37.9475 1.87434 43.458 5.03623 47.9927C7.08463 39.8824 14.1106 31.9764 20.1241 26.4352Z" fill="#FF7F57"/>
<path d="M33.4314 16.1403C36.7624 14.0167 39.6343 12.5483 41.4976 11.9921C43.1708 11.4924 44.8122 11.1285 46.3665 10.863C42.7748 7.74193 38.3843 5.51746 33.5377 4.54785C33.6451 6.50334 33.692 8.65026 32.5156 10.2101C31.9567 10.9508 31.0111 11.9667 29.7808 13.0688C30.9857 14.0067 32.2102 15.0295 33.4314 16.1403Z" fill="#FF7F57"/>
<path d="M34.533 33.3966C34.0959 34.8776 33.5444 37.2486 32.9064 39.9937C31.0226 48.0992 29.2201 55.3521 27.115 59.9773C27.4139 59.9868 27.7126 60.0001 28.0138 60.0001C34.5393 60.0001 40.5381 57.7618 45.2987 54.0195C45.1108 46.0623 43.2032 34.8071 38.3981 26.4521C36.5344 27.8373 35.5314 30.0163 34.533 33.3966Z" fill="#FF7F57"/>
</g>
<defs>
<clipPath id="clip0_1327_3095">
<rect width="56" height="56" fill="white" transform="translate(0 4)"/>
</clipPath>
</defs>
</svg>
